<svg version="1.1" id="Layer_1" xmlns="http://www.w3.org/2000/svg" xmlns:xlink="http://www.w3.org/1999/xlink" x="0px" y="0px"
	 width="100%" viewBox="0 0 500 500" enable-background="new 0 0 500 500" xml:space="preserve">
<path fill="none" opacity="1.000000" stroke="#000000" stroke-linecap="round" stroke-linejoin="round" stroke-width="14.000000"
	d="
M246.000000,417.000000 
	C241.101013,418.668335 236.632782,417.878845 231.965164,415.570435 
	C202.700760,401.097717 173.472351,386.537903 143.934937,372.638245 
	C131.250931,366.669464 118.722855,360.371674 105.966248,354.574249 
	C95.419128,349.781036 90.980965,341.566406 91.025436,330.500092 
	C91.097778,312.499725 90.884209,294.482025 91.603676,276.504150 
	C92.724861,248.488464 91.099792,220.501846 91.352989,192.498672 
	C91.414528,185.692795 90.876175,178.824738 91.084061,172.002563 
	C91.274582,165.750183 92.350845,159.556824 99.020164,156.544632 
	C100.936501,155.679123 100.257385,153.659561 101.456299,152.456451 
	C104.397430,149.505066 107.784958,147.296234 111.497986,145.495834 
	C145.168091,129.169617 178.819000,112.803650 212.511322,96.523422 
	C219.827011,92.988457 227.192093,89.494240 234.396774,85.798752 
	C243.273453,81.245659 251.171356,82.429619 259.515930,86.467102 
	C276.963379,94.909012 294.531677,103.100914 311.992157,111.516258 
	C335.024017,122.616806 357.994995,133.843643 381.004578,144.990555 
	C385.181641,147.014114 388.965240,149.493698 391.474731,153.515778 
	C392.012085,154.376999 392.510681,155.205688 393.503235,155.488647 
	C399.593353,157.224731 401.471741,161.890625 401.456818,167.499878 
	C401.416870,182.500229 400.438049,197.534271 401.141602,212.493347 
	C402.983856,251.663345 401.415070,290.835297 401.980011,330.000275 
	C402.142212,341.245850 397.923279,349.264252 387.089966,354.679962 
	C347.946594,374.248291 308.237457,392.636414 268.987091,411.973816 
	C265.043945,413.916504 261.300201,416.260437 257.017273,417.557068 
	C253.598267,418.592194 250.333328,418.750732 247.000000,417.500000 
"/>
<path fill="none" opacity="1.000000" stroke="#000000" stroke-linecap="round" stroke-linejoin="round" stroke-width="15.000000"
	d="
M100.500000,157.000000 
	C108.887283,164.748611 119.638245,168.486725 129.593170,173.307617 
	C153.543060,184.905884 177.622650,196.242783 201.510010,207.979614 
	C213.619415,213.929489 225.833023,219.667297 238.003860,225.491928 
	C238.139481,225.556824 238.362137,225.441940 238.495880,225.508316 
	C245.987137,229.225586 247.737732,232.273590 246.387054,240.481415 
	C246.106400,242.186920 246.035263,243.843491 246.034027,245.500031 
	C245.992905,300.333344 245.985840,355.166656 246.021851,410.000000 
	C246.025467,415.500092 246.333328,421.000000 246.500000,426.500000 
"/>
<path fill="none" opacity="1.000000" stroke="#000000" stroke-linecap="round" stroke-linejoin="round" stroke-width="14.000000"
	d="
M391.500000,155.500000 
	C384.293030,163.527023 374.201263,166.869598 364.954315,171.406860 
	C336.579895,185.329498 307.993622,198.820053 279.503143,212.506531 
	C268.141937,217.964310 256.636108,223.151047 246.000000,230.000000 
"/>
<path fill="none" opacity="1.000000" stroke="#000000" stroke-linecap="round" stroke-linejoin="round" stroke-width="9.000000"
	d="
M359.000000,240.000000 
	C358.683044,237.895493 360.197662,238.297791 361.483307,237.939987 
	C366.074219,236.662338 369.241852,232.976242 369.499969,229.000000 
	C369.855255,223.528351 367.566345,219.735443 363.020111,217.459808 
	C358.881958,215.388458 355.213196,216.855637 352.077240,219.107574 
	C348.746918,221.499115 347.268280,225.311356 348.046234,229.491394 
	C348.909576,234.130295 351.941986,236.897095 356.501984,237.991684 
	C357.170807,238.152222 357.997162,237.677994 358.500000,238.500000 
"/>
<path fill="none" opacity="1.000000" stroke="#000000" stroke-linecap="round" stroke-linejoin="round" stroke-width="9.000000"
	d="
M360.000000,260.500000 
	C369.632477,264.201843 372.635040,272.351654 367.000000,279.500000 
	C363.495636,283.945557 356.698273,284.883087 352.500000,281.500000 
	C347.447052,277.428162 346.079010,270.511902 349.511505,266.008759 
	C352.013611,262.726227 355.275848,260.713654 359.500000,260.500000 
"/>
<path fill="none" opacity="1.000000" stroke="#000000" stroke-linecap="round" stroke-linejoin="round" stroke-width="9.000000"
	d="
M331.000000,266.000000 
	C331.000000,277.333344 330.974213,288.666779 331.022583,299.999908 
	C331.031830,302.167236 331.333344,304.333344 331.500031,306.500000 
"/>
<path fill="none" opacity="1.000000" stroke="#000000" stroke-linecap="round" stroke-linejoin="round" stroke-width="9.000000"
	d="
M300.500000,274.000000 
	C294.057373,280.116821 292.840240,288.464203 291.098389,296.521271 
	C290.746216,298.150238 290.524048,299.525635 289.607208,301.063904 
	C286.939789,305.539246 285.135437,310.456024 283.750000,315.500000 
"/>
<path fill="none" opacity="1.000000" stroke="#000000" stroke-linecap="round" stroke-linejoin="round" stroke-width="8.000000"
	d="
M300.500000,264.500000 
	C299.982178,269.815247 300.467407,274.721893 304.960266,278.546692 
	C307.460449,280.675110 308.065582,284.061340 308.915588,287.024200 
	C311.433716,295.801300 315.705048,303.786591 319.335632,312.072021 
	C320.163757,313.961853 320.771515,314.540863 322.500000,314.500000 
"/>
<path fill="none" opacity="1.000000" stroke="#000000" stroke-linecap="round" stroke-linejoin="round" stroke-width="10.000000"
	d="
M311.500000,299.000000 
	C305.062958,301.622345 298.539062,300.856567 292.000000,299.500000 
"/>
<path fill="none" opacity="1.000000" stroke="#000000" stroke-linecap="round" stroke-linejoin="round" stroke-width="9.000000"
	d="
M356.000000,306.500000 
	C351.197205,308.159271 347.787598,311.215179 347.583649,316.503235 
	C347.423370,320.658691 348.693115,324.513702 352.498474,327.002319 
	C355.878754,329.213013 362.167358,329.235779 365.555878,326.059601 
	C368.783508,323.034241 370.351440,318.767975 369.000000,314.500000 
	C367.413208,309.488708 363.889862,306.665924 358.999878,306.503906 
	C358.167450,306.476288 357.333344,306.500000 356.500000,306.500000 
"/>
<path fill="none" opacity="1.000000" stroke="#000000" stroke-linecap="round" stroke-linejoin="round" stroke-width="9.000000"
	d="
M288.000000,335.500000 
	C282.497559,337.104279 280.146240,341.141998 280.059570,346.500977 
	C279.982513,351.265411 283.579956,355.456055 288.501343,356.995667 
	C292.828033,358.349182 296.174225,356.545197 298.979767,353.481476 
	C301.571594,350.651062 302.980804,347.408142 301.498413,343.500610 
	C299.893433,339.269775 297.522552,335.871765 292.498993,335.514221 
	C291.172363,335.419830 289.833344,335.500000 288.500000,335.500000 
"/>
</svg>