<svg version="1.1" id="Layer_1" xmlns="http://www.w3.org/2000/svg" xmlns:xlink="http://www.w3.org/1999/xlink" x="0px" y="0px"
	 width="100%" viewBox="0 0 500 500" enable-background="new 0 0 500 500" xml:space="preserve">
<path fill="none" opacity="1.000000" stroke="#000000" stroke-linecap="round" stroke-linejoin="round" stroke-width="14.000000"
	d="
M427.500000,187.500000 
	C425.366364,183.858673 422.091156,181.289703 418.465424,179.573029 
	C393.531219,167.767395 368.487457,156.193451 343.505157,144.488998 
	C330.475952,138.384689 317.537750,132.085388 304.489258,126.023102 
	C291.705200,120.083687 278.919220,114.132591 265.961395,108.590225 
	C260.059235,106.065720 254.126205,106.845512 247.948914,109.375252 
	C221.137329,120.355209 195.376129,133.596588 169.068176,145.648819 
	C145.483704,156.453323 122.273270,168.082077 98.511932,178.527145 
	C94.414375,180.328354 90.495941,182.526505 88.009857,186.506149 
	C87.277397,187.678665 86.356049,188.187851 85.000000,187.750000 
"/>
<path fill="none" opacity="1.000000" stroke="#000000" stroke-linecap="round" stroke-linejoin="round" stroke-width="14.000000"
	d="
M87.500000,188.000000 
	C90.424530,192.433960 94.896790,194.812057 99.501671,196.996490 
	C125.164856,209.170471 150.706635,221.610764 176.541550,233.409027 
	C195.943832,242.269638 215.275101,251.265259 234.523041,260.451721 
	C239.500015,262.827087 244.605225,264.906464 249.553009,267.394592 
	C256.881653,271.079956 264.140381,268.772064 270.984955,265.468842 
	C291.526703,255.555313 311.905151,245.299469 332.523193,235.549072 
	C360.429932,222.351807 388.503784,209.508148 416.491882,196.482544 
	C418.461517,195.565872 420.516296,194.754944 422.010223,193.008759 
	C426.393127,187.885773 432.074097,186.555603 438.500000,187.500000 
"/>
<path fill="none" opacity="1.000000" stroke="#000000" stroke-linecap="round" stroke-linejoin="round" stroke-width="14.000000"
	d="
M431.000000,310.750000 
	C428.828522,310.990387 426.982971,311.320312 425.405518,313.429321 
	C422.221710,317.685974 417.090179,319.283936 412.488068,321.474945 
	C391.014954,331.698059 369.518890,341.873535 347.995117,351.989655 
	C322.015656,364.199982 295.930573,376.188263 270.038666,388.580750 
	C261.294464,392.765961 252.902420,392.318634 244.517227,388.462555 
	C211.665558,373.355225 178.929001,358.005981 146.469696,342.061676 
	C130.477631,334.206238 114.153809,327.027466 98.011368,319.475708 
	C94.962357,318.049347 91.974571,316.356018 90.029312,313.480164 
	C88.177780,310.742889 85.783310,310.591736 83.000000,311.500000 
"/>
<path fill="none" opacity="1.000000" stroke="#000000" stroke-linecap="round" stroke-linejoin="round" stroke-width="14.000000"
	d="
M83.500000,249.250000 
	C86.636841,249.226318 88.769096,250.074844 91.225967,252.795975 
	C95.688965,257.738892 102.493546,259.781281 108.552727,262.376923 
	C122.623978,268.404724 136.170105,275.492706 150.002609,281.994446 
	C182.661163,297.345062 215.417633,312.491455 247.935150,328.134796 
	C255.210129,331.634613 261.576965,331.374939 268.515961,328.033142 
	C294.642822,315.450500 320.707550,302.727356 347.037201,290.580658 
	C370.872223,279.584900 394.240021,267.636475 418.048645,256.604950 
	C420.143585,255.634308 422.308105,254.794708 423.419708,252.951584 
	C425.862610,248.901169 429.469604,248.664673 433.502014,248.973557 
	C435.490356,249.125870 437.500000,249.000000 439.500000,249.000000 
"/>
<path fill="none" opacity="1.000000" stroke="#000000" stroke-linecap="round" stroke-linejoin="round" stroke-width="14.000000"
	d="
M136.500000,291.000000 
	C135.500000,291.544586 134.530304,291.140137 133.495255,291.069366 
	C124.375648,290.445709 116.331627,294.045990 108.538399,298.074280 
	C103.704506,300.572937 98.304832,301.850586 93.923637,305.405914 
	C91.714005,307.199005 89.666550,308.888794 88.500000,311.500000 
"/>
<path fill="none" opacity="1.000000" stroke="#000000" stroke-linecap="round" stroke-linejoin="round" stroke-width="14.000000"
	d="
M379.500000,292.000000 
	C386.954529,292.111176 394.476776,291.046570 401.536652,294.933441 
	C407.862579,298.416290 414.568604,301.202667 420.967712,304.561493 
	C423.694702,305.992889 425.910156,308.256531 427.500000,311.000000 
"/>
<path fill="none" opacity="1.000000" stroke="#000000" stroke-linecap="round" stroke-linejoin="round" stroke-width="14.000000"
	d="
M394.500000,230.000000 
	C401.833344,233.500000 409.113251,237.118576 416.520691,240.454071 
	C420.746429,242.356873 423.947632,245.247894 426.500000,249.000000 
"/>
<path fill="none" opacity="1.000000" stroke="#000000" stroke-linecap="round" stroke-linejoin="round" stroke-width="14.000000"
	d="
M121.500000,230.000000 
	C114.166664,233.333328 106.781380,236.558304 99.519173,240.039978 
	C95.050812,242.182236 90.933502,244.905457 88.500000,249.500000 
"/>
</svg>