<svg version="1.1" id="Layer_1" xmlns="http://www.w3.org/2000/svg" xmlns:xlink="http://www.w3.org/1999/xlink" x="0px" y="0px"
	 width="100%" viewBox="0 0 500 500" enable-background="new 0 0 500 500" xml:space="preserve">
<path fill="none" opacity="1.000000" stroke="#000000" stroke-linecap="round" stroke-linejoin="round" stroke-width="15.000000"
	d="
M212.000000,319.500000 
	C211.666656,326.000000 211.123123,332.497467 211.044739,339.000549 
	C210.892075,351.665344 210.980820,364.333374 211.006226,377.000000 
	C211.025543,386.627777 216.031281,389.329681 225.042450,385.602631 
	C237.954895,380.261993 250.219803,373.590851 262.982483,367.960297 
	C269.569336,365.054321 273.338531,360.644135 273.172546,352.496490 
	C272.687286,328.673035 273.080200,304.832886 272.945648,281.000305 
	C272.910370,274.755219 274.732452,269.274994 278.533295,264.526642 
	C288.601807,251.948074 298.766449,239.444885 309.013458,227.011124 
	C332.804535,198.142929 356.672302,169.337982 380.486115,140.488541 
	C381.926483,138.743561 383.328369,136.928223 384.470184,134.982513 
	C388.131439,128.743454 384.579895,120.803474 376.499176,120.957581 
	C367.002655,121.138687 357.499512,121.060425 348.000122,120.985870 
	C333.666351,120.873375 319.328186,120.334877 305.000885,120.556931 
	C240.001358,121.564362 174.999756,120.735306 109.999756,120.906982 
	C104.962448,120.920288 101.533630,123.169167 99.676834,127.083878 
	C98.105385,130.397003 99.199654,133.913437 101.925377,137.064545 
	C110.132301,146.552231 118.047272,156.294678 125.990364,166.007889 
	C143.687881,187.649307 161.311096,209.351517 179.010742,230.991211 
	C186.279160,239.877625 193.330399,248.976166 201.094879,257.412689 
	C208.809677,265.795197 211.929230,275.328156 211.564026,286.502106 
	C211.253860,295.991943 211.455368,305.500427 211.546051,314.999573 
	C211.560364,316.497711 210.505646,318.830505 213.500000,319.000000 
"/>
</svg>