<svg version="1.1" id="Layer_1" xmlns="http://www.w3.org/2000/svg" xmlns:xlink="http://www.w3.org/1999/xlink" x="0px" y="0px"
	 width="100%" viewBox="0 0 496 496" enable-background="new 0 0 496 496" xml:space="preserve">
<path fill="#000000" opacity="1.000000" stroke="none" 
	d="
M313.998138,122.012833 
	C344.372925,154.684860 343.414398,199.777206 311.897369,232.967300 
	C303.273254,242.049225 293.595734,249.958145 284.111298,258.092743 
	C273.292419,267.371826 263.131256,277.163879 259.086487,291.595795 
	C257.214111,298.276489 256.989380,305.047089 256.883759,311.880981 
	C256.834961,315.038055 256.798889,318.226166 256.341156,321.339050 
	C255.606064,326.338226 252.111832,329.551636 247.807053,329.643402 
	C243.612167,329.732849 239.907898,326.575500 239.386047,321.327942 
	C237.936676,306.753601 238.828156,292.470978 244.893661,278.748932 
	C251.940216,262.807465 264.045349,251.299026 277.138214,240.563492 
	C285.126617,234.013397 293.174866,227.537140 300.305664,220.024811 
	C332.165924,186.459961 320.802460,134.862991 278.048553,117.020638 
	C236.844345,99.825020 189.806229,123.762062 179.860931,167.628189 
	C179.055038,171.182831 178.672882,174.845291 178.271301,178.477264 
	C177.584518,184.688507 173.981689,188.697128 169.157120,188.411209 
	C164.434097,188.131302 160.563446,183.560059 160.943680,177.668930 
	C162.407303,154.992905 170.839783,135.409973 187.388336,119.535049 
	C219.868393,88.377190 266.877899,85.247116 303.045715,112.015610 
	C306.904083,114.871277 310.194122,118.494781 313.998138,122.012833 
z"/>
<path fill="#000000" opacity="1.000000" stroke="none" 
	d="
M235.396408,389.230835 
	C232.446289,381.365967 233.708221,374.350922 238.609604,369.997101 
	C243.525024,365.630768 249.628510,364.690369 255.323105,367.421875 
	C261.805023,370.530945 265.075226,376.620270 264.112946,383.789093 
	C263.187958,390.680298 258.207214,396.008423 251.320648,397.473511 
	C245.111694,398.794464 239.369980,395.916779 235.396408,389.230835 
z"/>
</svg>