<svg version="1.1" id="Layer_1" xmlns="http://www.w3.org/2000/svg" xmlns:xlink="http://www.w3.org/1999/xlink" x="0px" y="0px"
	 width="100%" viewBox="0 0 500 500" enable-background="new 0 0 500 500" xml:space="preserve">
<path fill="none" opacity="1.000000" stroke="#000000" stroke-linecap="round" stroke-linejoin="round" stroke-width="15.000000"
	d="
M398.500000,341.500000 
	C401.486115,337.288208 402.066101,332.571289 402.058472,327.499908 
	C401.967804,267.166718 401.973175,206.833313 402.022980,146.500015 
	C402.032776,134.628128 397.818390,125.093582 386.943176,119.612778 
	C382.253937,117.249542 376.807739,116.963272 371.500000,116.999252 
	C346.666656,117.167610 321.833282,117.474083 297.000031,117.463638 
	C267.333282,117.451157 237.663895,116.854607 208.001053,117.118980 
	C190.668076,117.273476 173.334000,117.495544 156.000046,117.471367 
	C144.333160,117.455093 132.666397,117.031715 121.000114,117.055199 
	C114.886986,117.067505 108.569252,117.168861 103.040581,120.077148 
	C93.345505,125.177139 89.118401,134.036072 89.087517,144.500259 
	C88.908432,205.166397 89.010727,265.833344 88.965210,326.499969 
	C88.963142,329.250885 89.689964,331.807831 91.091545,333.939819 
	C92.709061,336.400238 92.471626,338.438812 91.559517,341.021027 
	C87.534218,352.416718 87.489929,363.463287 94.450417,374.032654 
	C99.391045,381.534943 106.471024,384.922882 115.000084,384.933502 
	C202.166626,385.042114 289.333405,385.045776 376.499939,384.950317 
	C389.465881,384.936096 401.471893,376.278595 401.584045,359.000549 
	C401.622192,353.124329 400.919617,347.506927 399.000000,342.000000 
"/>
<path fill="none" opacity="1.000000" stroke="#000000" stroke-linecap="round" stroke-linejoin="round" stroke-width="14.000000"
	d="
M398.000000,341.500000 
	C393.178955,340.313660 389.357361,337.654572 385.967773,334.030151 
	C369.539215,316.463318 353.006195,298.994141 336.491119,281.508392 
	C334.698212,279.610077 332.639496,278.030853 330.552246,276.431793 
	C321.782104,269.712891 316.475311,272.184174 310.037903,277.545502 
	C302.765015,283.602631 296.883301,291.054474 290.476288,297.978058 
	C288.070557,300.577820 285.601746,303.122620 282.520203,305.032593 
	C277.662476,308.043396 272.540497,308.056000 268.560547,303.941437 
	C261.018005,296.143799 253.793716,288.035889 246.508911,279.991943 
	C234.309662,266.521423 222.177124,252.990540 209.980988,239.517197 
	C208.958023,238.387131 207.722870,237.424088 206.491028,236.512115 
	C197.354980,229.748352 193.821121,229.385788 185.057480,237.065598 
	C178.380341,242.916901 173.278824,250.284988 167.489624,256.991058 
	C151.352844,275.683502 135.169724,294.335968 118.998009,312.998260 
	C114.511040,318.176239 109.733345,323.129883 105.585869,328.565521 
	C102.368378,332.782288 98.244225,335.217346 93.500000,337.000000 
"/>
<path fill="none" opacity="1.000000" stroke="#000000" stroke-linecap="round" stroke-linejoin="round" stroke-width="15.000000"
	d="
M301.000000,169.000000 
	C288.819031,171.331177 280.057373,182.815552 280.985565,194.501144 
	C281.948212,206.620651 292.242004,216.925934 307.004517,216.078812 
	C318.929108,215.394516 328.983856,205.439392 329.000000,193.500000 
	C329.015686,181.892517 323.795227,174.382690 313.021667,169.947342 
	C309.189728,168.369751 305.328949,169.383926 301.500000,169.000000 
"/>
</svg>