<svg version="1.1" id="Layer_1" xmlns="http://www.w3.org/2000/svg" xmlns:xlink="http://www.w3.org/1999/xlink" x="0px" y="0px"
	 width="100%" viewBox="0 0 496 496" enable-background="new 0 0 496 496" xml:space="preserve">
<path fill="#000000" opacity="1.000000" stroke="none" 
	d="
M396.270752,399.176941 
	C390.712189,403.773071 387.865021,403.590485 382.398956,397.827881 
	C364.047974,378.481506 344.914062,359.916565 326.058777,341.073456 
	C318.164856,333.184662 310.090546,325.468811 302.405426,317.382385 
	C299.347229,314.164490 297.470642,316.232269 295.276276,317.930145 
	C277.891266,331.381714 258.351257,340.041626 236.547928,342.597137 
	C190.788727,347.960449 153.363312,332.891602 125.581070,295.592163 
	C110.971420,275.977722 102.497726,253.712845 101.264999,229.453110 
	C100.259575,209.666611 104.499046,190.279907 113.362045,172.354385 
	C131.572708,135.523041 160.535950,111.874306 201.194458,104.400352 
	C233.442429,98.472458 263.070007,106.260361 289.421234,125.772827 
	C317.080261,146.253708 334.475830,173.191666 338.920044,207.640167 
	C343.016083,239.389847 335.538788,268.468353 317.153290,294.708710 
	C316.292816,295.936768 315.534363,297.260529 314.531067,298.359619 
	C311.831879,301.316620 312.358673,303.725922 315.109283,306.455841 
	C328.117554,319.366333 340.993103,332.410492 353.921875,345.401154 
	C366.965271,358.507019 380.033295,371.588440 393.054321,384.716492 
	C398.362274,390.068085 399.022186,393.001251 396.270752,399.176941 
M242.080109,324.617279 
	C243.371857,324.292053 244.660873,323.955597 245.955719,323.643219 
	C308.078522,308.658661 339.961395,238.889816 313.726257,180.718124 
	C293.296234,135.418167 239.238937,106.596832 185.804153,126.508392 
	C140.237717,143.487930 110.665894,193.032181 120.734467,244.044556 
	C131.825790,300.238617 183.975876,336.861633 242.080109,324.617279 
z"/>
</svg>