<svg version="1.1" id="Layer_1" xmlns="http://www.w3.org/2000/svg" xmlns:xlink="http://www.w3.org/1999/xlink" x="0px" y="0px"
	 width="100%" viewBox="0 0 500 500" enable-background="new 0 0 500 500" xml:space="preserve">
<path fill="none" opacity="1.000000" stroke="#000000" stroke-linecap="round" stroke-linejoin="round" stroke-width="15.000000"
	d="
M347.000000,254.500000 
	C278.166656,253.668869 209.333328,253.678513 140.500000,254.500000 
"/>
<path fill="none" opacity="1.000000" stroke="#000000" stroke-linecap="round" stroke-linejoin="round" stroke-width="15.000000"
	d="
M347.000000,191.500000 
	C279.000000,192.323502 211.000000,192.330200 143.000000,191.500000 
"/>
<path fill="none" opacity="1.000000" stroke="#000000" stroke-linecap="round" stroke-linejoin="round" stroke-width="15.000000"
	d="
M291.000000,317.500000 
	C287.666656,317.333344 284.333435,317.023865 281.000000,317.021515 
	C235.333328,316.989563 189.666672,317.000000 144.000000,317.000000 
"/>
<path fill="none" opacity="1.000000" stroke="#000000" stroke-linecap="round" stroke-linejoin="round" stroke-width="15.000000"
	d="
M104.000000,121.000000 
	C88.244919,123.633972 81.859596,137.524170 81.895813,149.500320 
	C82.108025,219.666351 82.076263,289.833496 81.946259,359.999908 
	C81.913826,377.497925 92.406563,388.914276 111.000092,388.970825 
	C144.833099,389.073669 178.672516,389.401581 212.498672,388.908997 
	C267.833954,388.103241 323.166840,388.718903 378.500183,388.566589 
	C392.660797,388.527618 401.589844,381.172638 405.389374,369.464111 
	C406.448700,366.199677 406.454559,362.500244 406.457458,358.999969 
	C406.514618,290.000000 406.537659,220.999954 406.462585,152.000046 
	C406.450226,140.630936 404.013519,130.224136 393.013092,123.976959 
	C389.093475,121.751015 384.929688,120.986992 380.500000,120.987778 
	C288.500000,121.003990 196.500000,121.000000 104.500000,121.000000 
"/>
</svg>