<svg version="1.1" id="Layer_1" xmlns="http://www.w3.org/2000/svg" xmlns:xlink="http://www.w3.org/1999/xlink" x="0px" y="0px"
	 width="100%" viewBox="0 0 500 500" enable-background="new 0 0 500 500" xml:space="preserve">
<path fill="none" opacity="1.000000" stroke="#000000" stroke-linecap="round" stroke-linejoin="round" stroke-width="15.000000"
	d="
M171.500000,166.000000 
	C170.429047,176.485641 170.030090,187.174591 171.474960,197.433105 
	C172.301636,203.302582 170.975677,208.499863 170.983170,214.000031 
	C171.020142,241.166641 170.997818,268.333344 171.001404,295.500000 
	C171.002396,303.067108 173.903030,305.992096 181.500000,305.994568 
	C218.500000,306.006622 255.500000,306.000000 292.500000,306.000000 
	C298.833344,306.000000 305.166656,306.000000 311.500000,306.000000 
	C318.000000,306.000000 324.993225,304.483551 330.871399,306.395386 
	C337.754547,308.634094 343.631317,305.540680 350.007568,305.836609 
	C362.148102,306.400085 374.333344,306.000000 386.500000,306.000000 
"/>
<path fill="none" opacity="1.000000" stroke="#000000" stroke-linecap="round" stroke-linejoin="round" stroke-width="16.000000"
	d="
M337.500000,286.000000 
	C336.691071,263.166656 336.560913,240.328995 337.549011,217.502121 
	C337.947998,208.283905 335.493958,204.382416 325.499695,204.417664 
	C274.833679,204.596436 224.166672,204.500000 173.500000,204.500000 
"/>
<path fill="none" opacity="1.000000" stroke="#000000" stroke-linecap="round" stroke-linejoin="round" stroke-width="16.000000"
	d="
M337.500000,308.500000 
	C337.500000,321.500000 337.500000,334.500000 337.500000,347.500000 
"/>
<path fill="none" opacity="1.000000" stroke="#000000" stroke-linecap="round" stroke-linejoin="round" stroke-width="15.000000"
	d="
M116.500000,137.000000 
	C102.639191,138.762711 93.493095,146.272583 88.989342,159.496368 
	C87.657349,163.407303 87.560692,167.494980 87.573982,171.499756 
	C87.611580,182.832581 87.574821,194.163864 87.861870,205.503494 
	C88.359398,225.157578 88.000000,244.833328 88.000000,264.500000 
	C88.000000,291.500000 87.777496,318.502655 88.098412,345.498840 
	C88.248039,358.086395 100.025955,372.801788 117.000557,372.921173 
	C153.498749,373.177887 190.000000,373.000000 226.500000,373.000000 
	C280.500000,373.000000 334.500183,372.919403 388.499908,373.045288 
	C406.519104,373.087280 418.844360,358.673706 419.497101,343.999878 
	C419.682434,339.834045 419.975555,335.666748 419.978363,331.500000 
	C420.011871,281.500000 420.146149,231.499115 419.844879,181.500931 
	C419.798889,173.862839 420.167511,166.096161 417.626801,158.457825 
	C413.145416,144.984924 399.520538,136.958298 386.499969,136.968201 
	C304.166687,137.030869 221.833328,137.000000 139.500000,137.000000 
	C132.000000,137.000000 124.500000,137.000000 117.000000,137.000000 
"/>
</svg>