<svg version="1.1" id="Layer_1" xmlns="http://www.w3.org/2000/svg" xmlns:xlink="http://www.w3.org/1999/xlink" x="0px" y="0px"
	 width="100%" viewBox="0 0 500 500" enable-background="new 0 0 500 500" xml:space="preserve">
<path fill="none" opacity="1.000000" stroke="#000000" stroke-linecap="round" stroke-linejoin="round" stroke-width="15.000000"
	d="
M103.500000,130.000000 
	C98.974586,130.696075 94.120789,130.459732 90.046295,132.588608 
	C78.873741,138.426086 72.076210,147.552582 72.051613,160.500092 
	C71.935738,221.499878 71.933510,282.500122 72.047363,343.499908 
	C72.075363,358.500366 84.344002,371.540680 99.504456,371.196198 
	C128.989243,370.526245 158.511093,370.512024 187.995865,371.181854 
	C205.865524,371.587830 216.816849,358.552032 216.924652,341.999512 
	C217.165634,305.001068 217.000000,268.000000 217.000000,231.000000 
	C217.000000,207.833328 216.639420,184.659225 217.117584,161.502426 
	C217.480118,143.946396 204.728760,130.112122 185.499878,130.029556 
	C158.333710,129.912888 131.166672,130.000000 104.000000,130.000000 
"/>
<path fill="none" opacity="1.000000" stroke="#000000" stroke-linecap="round" stroke-linejoin="round" stroke-width="15.000000"
	d="
M288.500000,130.000000 
	C276.855560,131.112442 268.000946,136.684494 262.608337,147.056335 
	C260.830261,150.476242 259.941101,154.394455 259.946320,158.500061 
	C260.024017,219.666641 259.949127,280.833405 260.038055,341.999939 
	C260.058624,356.153320 268.940125,366.867706 280.017395,370.446167 
	C281.726257,370.998199 283.666534,370.976868 285.500031,370.978638 
	C316.666656,371.008453 347.836121,370.758575 378.998657,371.117676 
	C391.641907,371.263367 402.532990,362.473511 405.974945,349.993103 
	C406.780182,347.073425 407.048676,344.076965 407.045532,340.999939 
	C406.984253,280.833374 407.043243,220.666626 406.969025,160.500046 
	C406.950928,145.816940 396.776123,133.384720 382.504242,130.974884 
	C378.684387,130.329910 374.879456,129.967239 370.999939,129.974152 
	C343.666687,130.022873 316.333344,130.000000 289.000000,130.000000 
"/>
</svg>