<svg version="1.1" id="Layer_1" xmlns="http://www.w3.org/2000/svg" xmlns:xlink="http://www.w3.org/1999/xlink" x="0px" y="0px"
	 width="100%" viewBox="0 0 500 500" enable-background="new 0 0 500 500" xml:space="preserve">
<path fill="none" opacity="1.000000" stroke="#000000" stroke-linecap="round" stroke-linejoin="round" stroke-width="15.000000"
	d="
M116.500000,164.000000 
	C110.577240,166.922791 104.219353,165.927521 97.999794,165.967300 
	C92.070457,166.005249 86.243744,166.649643 81.025970,169.546768 
	C71.060982,175.079742 64.501404,183.207504 64.045959,195.001770 
	C62.778465,227.825073 63.325394,260.672699 63.683960,293.497986 
	C63.895267,312.842346 62.590431,332.178375 63.626953,351.493195 
	C63.957428,357.651367 63.122150,363.939484 64.994957,370.001556 
	C69.000008,382.965393 80.014320,393.030762 96.000015,393.020905 
	C171.833313,392.974152 247.666672,392.992737 323.500000,393.005798 
	C339.775055,393.008606 353.590027,381.448151 355.216156,364.020172 
	C355.789551,357.874939 354.792419,351.398651 357.549835,345.523376 
	C357.941986,344.687775 358.062958,344.290558 357.531616,343.479309 
	C354.700073,339.156281 355.529327,334.245148 355.516357,329.499969 
	C355.473145,313.666718 355.865662,297.823059 355.420074,282.002258 
	C354.617249,253.499649 355.431061,224.996674 354.935699,196.501114 
	C354.683716,182.005844 343.895020,168.959351 326.995728,166.529678 
	C324.359589,166.150681 321.666718,166.022263 319.000000,166.021133 
	C255.000000,165.993988 190.999985,165.986557 127.000031,166.036209 
	C123.476540,166.038940 120.128426,165.691208 117.000000,164.000000 
"/>
<path fill="none" opacity="1.000000" stroke="#000000" stroke-linecap="round" stroke-linejoin="round" stroke-width="15.000000"
	d="
M358.500000,344.500000 
	C367.370819,344.330078 376.331329,345.220917 384.997040,342.490570 
	C397.773193,338.465118 405.768036,326.497772 406.019226,314.000397 
	C407.117828,259.335785 406.206848,204.666336 406.479431,149.999893 
	C406.531006,139.655289 404.501251,130.062210 396.542542,122.455482 
	C390.023071,116.224380 382.190674,113.109512 373.499817,113.091156 
	C298.500153,112.932671 223.499863,112.925400 148.500122,113.064980 
	C134.061920,113.091850 123.469261,119.795517 118.081703,133.532043 
	C116.859764,136.647598 116.183540,140.154907 116.102074,143.502487 
	C115.940048,150.160355 115.541290,156.853134 116.500000,163.500000 
"/>
</svg>