<svg version="1.1" id="Layer_1" xmlns="http://www.w3.org/2000/svg" xmlns:xlink="http://www.w3.org/1999/xlink" x="0px" y="0px"
	 width="100%" viewBox="0 0 500 500" enable-background="new 0 0 500 500" xml:space="preserve">
<path fill="none" opacity="1.000000" stroke="#000000" stroke-linecap="round" stroke-linejoin="round" stroke-width="14.000000"
	d="
M270.500000,143.500000 
	C264.186035,147.005493 261.434875,153.536530 257.545227,159.032013 
	C226.797195,202.474411 196.173080,246.004517 165.489624,289.492676 
	C162.584198,293.610596 159.931335,297.794586 159.460495,302.996429 
	C159.418015,303.465668 159.890457,303.945435 159.044815,304.561523 
	C151.975540,309.711792 150.909470,317.931366 149.101196,325.524109 
	C145.906570,338.938049 143.297226,352.492554 140.509842,366.002045 
	C137.539627,380.397552 135.408432,394.932495 133.511612,409.501526 
	C132.544128,416.932556 138.284210,422.051361 146.958221,417.912445 
	C154.822495,414.159882 162.402191,409.787750 169.986237,405.475800 
	C188.028931,395.217529 206.070129,384.952484 223.955688,374.424744 
	C229.074036,371.411957 234.470871,368.522003 236.698502,362.068512 
	C237.385010,360.079773 240.721741,359.413177 242.561066,357.560638 
	C249.695435,350.374969 254.592026,341.549591 260.399994,333.428467 
	C281.486877,303.943146 302.147400,274.153107 323.010010,244.507034 
	C330.781555,233.463577 338.665802,222.499374 346.502136,211.501541 
	C346.985596,210.823059 347.558411,210.202347 347.990723,209.494339 
	C351.433472,203.856415 351.360352,202.226913 345.965851,198.044022 
	C331.398926,186.748749 316.679413,175.649857 301.994598,164.507126 
	C294.692322,158.966202 287.327667,153.507538 280.002930,147.996109 
	C277.273651,145.942474 274.295197,144.409622 271.000000,143.500000 
"/>
<path fill="none" opacity="1.000000" stroke="#000000" stroke-linecap="round" stroke-linejoin="round" stroke-width="14.000000"
	d="
M346.500000,72.000000 
	C365.869110,71.166534 390.514587,86.539497 395.968018,112.506714 
	C398.969940,126.800659 395.544739,140.105698 388.410431,152.448227 
	C384.581146,159.072922 380.013763,165.300247 375.451019,171.463745 
	C370.541809,178.095306 369.591278,177.976349 362.603333,173.344131 
	C350.892090,165.580872 339.831512,156.835800 328.500488,148.499329 
	C316.498260,139.669022 304.437866,130.915924 292.531830,121.957695 
	C288.026093,118.567535 287.466949,116.859428 290.592255,112.567177 
	C299.373566,100.507111 307.080719,87.504555 320.442596,79.405312 
	C328.417328,74.571472 336.637482,71.567390 346.000000,72.000000 
"/>
<path fill="none" opacity="1.000000" stroke="#000000" stroke-linecap="round" stroke-linejoin="round" stroke-width="14.000000"
	d="
M160.000000,305.000000 
	C168.910278,308.751556 175.814865,315.472931 183.452072,321.065460 
	C199.775253,333.018372 215.839172,345.325592 231.989777,357.513550 
	C233.400253,358.577972 234.666672,359.833344 236.000000,361.000000 
"/>
</svg>