<svg version="1.1" id="Layer_1" xmlns="http://www.w3.org/2000/svg" xmlns:xlink="http://www.w3.org/1999/xlink" x="0px" y="0px"
	 width="100%" viewBox="0 0 496 496" enable-background="new 0 0 496 496" xml:space="preserve">
<path fill="#000000" opacity="1.000000" stroke="none" 
	d="
M300.643341,106.501663 
	C344.972382,95.452812 391.084076,118.404465 407.860992,165.915329 
	C419.826355,199.800293 411.209900,230.848343 391.865021,259.706207 
	C381.865784,274.622650 368.973114,286.981628 356.251221,299.477875 
	C323.447510,331.699707 290.645203,363.922943 257.838135,396.141357 
	C257.125336,396.841339 256.368805,397.497620 255.620499,398.160553 
	C247.179367,405.638763 240.668304,405.694092 232.390411,397.897705 
	C222.810013,388.874603 213.385544,379.682648 204.014542,370.441162 
	C176.018677,342.832001 148.084167,315.160645 120.121498,287.517792 
	C103.119568,270.710297 88.660477,252.127869 80.640320,229.287720 
	C59.801769,169.942841 99.237305,109.471497 158.353653,104.271309 
	C187.874619,101.674484 212.480438,112.656204 232.038666,134.889938 
	C234.128082,137.265182 236.010483,139.821945 238.085800,142.210327 
	C240.016479,144.432251 240.987549,147.441666 244.179108,149.510452 
	C257.839355,128.615906 275.433838,112.801636 300.643341,106.501663 
M291.949493,127.396431 
	C279.141846,133.536057 269.127777,142.880051 261.204529,154.519958 
	C258.021179,159.196548 255.365036,164.230774 252.207077,168.926102 
	C247.437866,176.017090 240.481796,175.920380 235.660599,168.857925 
	C235.004150,167.896317 234.386856,166.896805 233.860138,165.859650 
	C230.211777,158.675552 225.416977,152.294693 220.174561,146.224625 
	C197.965530,120.509308 161.223816,113.336639 132.071991,129.023483 
	C98.608353,147.030548 83.251976,188.188034 96.750870,223.970688 
	C103.866302,242.832184 115.248055,258.979492 129.236053,273.297791 
	C163.589020,308.462097 199.259674,342.289856 234.473190,376.579987 
	C245.293976,387.117096 242.489944,387.168427 253.528442,376.523315 
	C281.112000,349.922699 308.414886,323.030762 335.796082,296.220673 
	C349.720581,282.586639 364.027771,269.311188 375.500366,253.388611 
	C390.011780,233.248596 397.946594,211.441849 395.024414,186.061340 
	C389.281555,136.181610 339.158142,107.122055 291.949493,127.396431 
z"/>
</svg>