<svg version="1.1" id="Layer_1" xmlns="http://www.w3.org/2000/svg" xmlns:xlink="http://www.w3.org/1999/xlink" x="0px" y="0px"
	 width="100%" viewBox="0 0 500 500" enable-background="new 0 0 500 500" xml:space="preserve">
<path fill="none" opacity="1.000000" stroke="#000000" stroke-linecap="round" stroke-linejoin="round" stroke-width="15.000000"
	d="
M165.500000,85.000000 
	C159.730179,86.315926 153.788773,86.850220 148.474594,89.956528 
	C138.630020,95.710991 134.039276,104.665291 133.108292,115.509300 
	C132.396866,123.795868 132.590820,132.165985 132.514557,140.500137 
	C132.305649,163.333069 132.027435,186.167038 132.086761,208.999771 
	C132.104065,215.655411 132.979126,222.288315 135.952499,228.522659 
	C141.020599,239.148941 149.185379,244.019516 160.975754,245.235168 
	C174.552414,246.634979 188.000366,244.862244 201.502869,245.431946 
	C209.649506,245.775681 211.947586,245.779648 211.965393,256.000061 
	C212.044968,301.666565 211.868546,347.333923 212.073593,392.999664 
	C212.142349,408.313049 219.817886,418.833801 232.025726,421.376526 
	C241.564026,423.363190 251.342178,423.145935 260.997681,421.486481 
	C272.179749,419.564697 282.651306,408.509155 282.568359,390.499695 
	C282.361053,345.500641 282.500000,300.500000 282.500000,255.500000 
	C282.500000,246.484818 283.484955,245.531219 292.499969,245.492676 
	C306.001099,245.434937 319.498566,245.520386 333.002625,245.080566 
	C346.523773,244.640182 359.667725,233.276505 359.878143,216.498474 
	C360.292023,183.503662 360.504486,150.489319 359.806396,117.504097 
	C359.402588,98.424057 344.790863,85.024849 325.000000,85.011856 
	C272.000000,84.977074 219.000000,85.000000 166.000000,85.000000 
"/>
</svg>