<svg version="1.1" id="Layer_1" xmlns="http://www.w3.org/2000/svg" xmlns:xlink="http://www.w3.org/1999/xlink" x="0px" y="0px"
	 width="100%" viewBox="0 0 500 500" enable-background="new 0 0 500 500" xml:space="preserve">
<path fill="none" opacity="1.000000" stroke="#000000" stroke-linecap="round" stroke-linejoin="round" stroke-width="14.000000"
	d="
M240.500000,299.500000 
	C250.438858,298.859497 259.730530,296.509674 268.034546,290.548096 
	C283.926331,279.139130 290.314972,263.394135 288.357513,244.514771 
	C286.176117,223.475342 271.412628,206.529007 250.002792,202.485214 
	C227.339569,198.204697 202.817780,208.517197 194.505325,233.001816 
	C184.059265,263.771057 200.496689,291.448669 231.514374,298.940460 
	C234.236816,299.598022 237.214279,298.523865 240.000000,299.500000 
"/>
<path fill="none" opacity="1.000000" stroke="#000000" stroke-linecap="round" stroke-linejoin="round" stroke-width="14.000000"
	d="
M302.000000,188.500000 
	C303.533844,188.465302 304.895416,188.609207 306.023621,189.980560 
	C317.114014,203.460861 323.981476,218.753784 327.079346,235.985733 
	C331.926270,262.946350 323.707062,286.378296 308.333466,307.880920 
	C306.584473,310.327240 305.983185,312.363037 306.000000,315.000000 
"/>
<path fill="none" opacity="1.000000" stroke="#000000" stroke-linecap="round" stroke-linejoin="round" stroke-width="14.000000"
	d="
M175.500000,186.000000 
	C175.439392,187.498108 175.292404,188.659470 174.109177,190.090286 
	C166.377014,199.440521 159.355835,209.485367 155.638123,221.044418 
	C145.498367,252.570709 150.839783,281.655029 170.955017,308.034302 
	C172.870392,310.546173 175.070450,310.143097 177.500000,309.750000 
"/>
<path fill="none" opacity="1.000000" stroke="#000000" stroke-linecap="round" stroke-linejoin="round" stroke-width="15.000000"
	d="
M103.500000,131.000000 
	C91.476921,132.597565 82.274071,138.310211 77.040062,149.518707 
	C75.067825,153.742203 73.949089,158.200439 73.954964,163.000061 
	C74.024811,220.166641 74.271439,277.335419 73.832306,334.498718 
	C73.702888,351.345062 85.771500,368.040894 107.500015,368.025330 
	C193.499969,367.963654 279.500000,367.983978 365.499969,368.033325 
	C371.728241,368.036896 378.106842,368.477570 383.956635,366.379089 
	C394.539520,362.582703 401.617493,355.060211 404.468475,343.991882 
	C405.517822,339.918030 406.056366,335.773712 406.050354,331.499939 
	C405.973907,277.166687 406.030701,222.833298 405.978485,168.500015 
	C405.965363,154.828247 401.560516,143.111954 389.457092,135.568832 
	C383.764038,132.020798 377.193817,130.996811 370.500000,130.997147 
	C281.666656,131.001419 192.833328,131.000000 104.000000,131.000000 
"/>
</svg>