<svg version="1.1" id="Layer_1" xmlns="http://www.w3.org/2000/svg" xmlns:xlink="http://www.w3.org/1999/xlink" x="0px" y="0px"
	 width="100%" viewBox="0 0 500 500" enable-background="new 0 0 500 500" xml:space="preserve">
<path fill="none" opacity="1.000000" stroke="#000000" stroke-linecap="round" stroke-linejoin="round" stroke-width="14.000000"
	d="
M374.000000,346.500000 
	C373.915894,350.082916 371.602814,352.612854 369.439819,354.944153 
	C363.108948,361.767761 356.627106,368.463654 349.964050,374.963135 
	C343.370789,381.394531 339.567566,381.454224 331.996948,376.004272 
	C326.179077,371.816101 320.134735,367.913544 314.558289,363.427551 
	C309.426178,359.298981 304.633759,358.050995 298.433075,361.375183 
	C292.539673,364.534668 286.052063,366.546631 279.939301,369.368530 
	C276.746735,370.842316 275.499725,372.974304 275.012085,376.001953 
	C273.644043,384.496368 272.157104,392.977020 271.044373,401.505798 
	C269.634277,412.313599 265.857788,417.146576 254.995850,416.579407 
	C247.183823,416.171539 239.319916,416.212372 231.503586,416.576996 
	C222.855835,416.980377 217.546432,414.306519 215.991058,402.501190 
	C214.870377,393.995117 213.392929,385.524994 212.613770,376.989624 
	C212.215500,372.626648 209.888611,370.088562 206.465149,368.579010 
	C199.078506,365.321960 191.520981,362.445740 183.987839,359.531464 
	C181.580383,358.600128 179.243927,358.783081 176.974487,360.465576 
	C170.547348,365.230530 164.010941,369.848694 157.493362,374.490692 
	C155.536392,375.884460 153.507126,377.177521 151.498398,378.497559 
	C148.049606,380.763885 144.479767,380.496185 141.546890,377.946075 
	C132.547348,370.121063 123.772240,362.016571 116.542519,352.467804 
	C112.628853,347.298737 112.567955,344.434448 116.037315,339.526367 
	C121.058243,332.423370 126.232430,325.422302 131.539139,318.530121 
	C134.559067,314.607941 134.707565,310.334869 133.425232,306.022217 
	C131.910370,300.927551 129.744278,296.030396 128.024368,290.991669 
	C126.205635,285.663452 122.439262,283.198517 117.006088,282.455475 
	C108.483147,281.289886 99.960625,280.039673 91.513763,278.427887 
	C85.825951,277.342560 81.964493,273.600952 81.863625,266.001801 
	C81.737427,256.494293 81.358635,247.010162 81.945610,237.496643 
	C82.380600,230.446198 85.418724,226.658875 92.501678,225.510345 
	C100.994568,224.133179 109.483856,222.715881 118.006134,221.544647 
	C123.011490,220.856720 126.283852,218.769928 127.600166,213.525146 
	C128.594116,209.564789 130.200546,205.680420 132.063385,202.032379 
	C135.748474,194.815704 134.090683,188.911682 129.096008,182.919968 
	C124.371445,177.252304 119.852448,171.359131 115.963554,165.022369 
	C113.142014,160.424789 113.023460,156.575653 116.525047,152.521637 
	C124.082771,143.771545 131.627625,134.990433 140.510376,127.512321 
	C144.741028,123.950653 150.277390,124.050560 154.507523,127.490753 
	C161.312820,133.025223 168.301620,138.343155 174.947205,144.061371 
	C178.676102,147.269928 182.794113,147.396179 186.420212,145.358032 
	C192.580154,141.895721 199.165344,139.470428 205.562241,136.640717 
	C209.904495,134.719894 211.878143,131.827454 212.498734,127.499817 
	C213.669739,119.333778 214.905289,111.176117 215.980118,102.997383 
	C217.090607,94.547508 221.047028,90.377243 229.502655,90.074295 
	C238.657578,89.746292 247.837433,89.831787 256.998657,90.054916 
	C263.930878,90.223763 268.378693,93.718658 269.921722,100.517761 
	C271.909912,109.278130 273.792297,118.113609 274.822021,127.020569 
	C275.407684,132.086838 278.276062,134.901123 282.064270,136.329529 
	C288.254547,138.663651 294.181915,141.471634 299.963196,144.568695 
	C305.192627,147.370117 309.540070,146.863831 314.042328,143.049973 
	C320.374908,137.685669 326.979462,132.640549 333.506531,127.508301 
	C338.671814,123.446823 342.622681,123.280769 346.957520,127.543198 
	C354.939636,135.391907 362.792847,143.381577 370.452820,151.544266 
	C375.072998,156.467667 375.312958,160.477219 371.451813,165.966095 
	C366.313751,173.270126 360.960297,180.433228 355.439331,187.452286 
	C353.137665,190.378433 352.932343,193.268234 354.012482,196.495819 
	C356.136719,202.843353 358.172485,209.228149 360.561005,215.476685 
	C361.966522,219.153610 364.898315,221.038467 368.991577,221.565384 
	C377.685791,222.684586 386.351135,224.061981 394.994690,225.531235 
	C402.713226,226.843201 404.616730,228.780594 405.458923,236.504471 
	C406.601837,246.986465 406.371765,257.524963 405.403351,267.991058 
	C404.778076,274.748596 399.302917,278.481323 391.008087,279.562042 
	C382.970795,280.609222 374.995361,282.139709 367.002563,283.514923 
	C364.282928,283.982880 362.010864,285.329346 361.030243,288.011047 
	C358.604797,294.644012 356.258240,301.308319 354.025085,308.008362 
	C352.402222,312.877319 354.567413,316.797363 357.486115,320.510895 
	C362.038544,326.303009 366.580933,332.106842 370.959442,338.029968 
	C372.667603,340.340729 374.341827,342.830139 374.000000,346.000000 
"/>
<path fill="none" opacity="1.000000" stroke="#000000" stroke-linecap="round" stroke-linejoin="round" stroke-width="14.000000"
	d="
M241.000000,191.500000 
	C228.605927,192.670410 217.222473,196.504929 207.510895,204.513214 
	C194.829453,214.970474 186.631348,227.944885 183.916000,244.486206 
	C178.765732,275.860657 200.077148,302.948883 226.553391,311.331360 
	C252.090607,319.416626 278.519470,308.972443 293.050354,289.537659 
	C316.370911,258.346771 304.966095,218.794785 274.469086,199.548965 
	C264.472870,193.240631 253.207840,191.246811 241.500000,191.500000 
"/>
</svg>